<svg xmlns="http://www.w3.org/2000/svg" width="20" height="21" viewBox="0 0 20 21" fill="none">
<path d="M13.8 10.5625C13.8 12.5625 12.2 14.1625 10.2 14.1625C8.19999 14.1625 6.49999 12.5625 6.49999 10.5625C6.49999 10.2625 6.49999 10.0625 6.59999 9.76255H2.29999V15.5625C2.29999 17.0625 3.49999 18.2625 4.99999 18.2625H15C16.5 18.2625 17.7 17.0625 17.7 15.5625V9.76255H13.7C13.7 10.0625 13.8 10.2625 13.8 10.5625ZM15 2.86255H4.99999C3.49999 2.86255 2.29999 4.06255 2.29999 5.56255V8.46255H7.19999C7.89999 7.56255 8.89999 6.96255 10.1 6.96255C11.3 6.96255 12.3 7.56255 13 8.46255H17.7V5.56255C17.7 4.06255 16.5 2.86255 15 2.86255ZM16 5.96255C16 6.36255 15.7 6.66255 15.3 6.66255H14.4C14 6.66255 13.7 6.36255 13.7 5.96255V5.06255C13.7 4.66255 14 4.36255 14.4 4.36255H15.3C15.7 4.36255 16 4.66255 16 5.06255V5.96255Z" fill="black"/>
</svg>